PathFileType	4	(X/Y/Z)	C:/Users/opensim2020/Desktop/walking_exp_matlab/subject01_walking15_straight_03.trc																																																																																																																															
DataRate	CameraRate	NumFrames	NumMarkers	Units	OrigDataRate	OrigDataStartFrame	OrigNumFrames																																																																																																																											
100	100	9	43	mm	100	1726	145																																																																																																																											
Frame#	Time	LFHD			RFHD			LBHD			RBHD			C7			T10			CLAV			STRN			RBAK			LSHO			LUPA			LELB			LFRM			LWRA			LWRB			LFIN			RSHO			RUPA			RELB			RFRM			RWRA			RWRB			RFIN			LASI			RASI			LPSI			RPSI			LTHI			LKNE			LTIB			LANK			LHEE			LTOE			RTHI			RKNE			RTIB			RANK			RHEE			RTOE			*39			*40			*41			*42		
		X1	Y1	Z1	X2	Y2	Z2	X3	Y3	Z3	X4	Y4	Z4	X5	Y5	Z5	X6	Y6	Z6	X7	Y7	Z7	X8	Y8	Z8	X9	Y9	Z9	X10	Y10	Z10	X11	Y11	Z11	X12	Y12	Z12	X13	Y13	Z13	X14	Y14	Z14	X15	Y15	Z15	X16	Y16	Z16	X17	Y17	Z17	X18	Y18	Z18	X19	Y19	Z19	X20	Y20	Z20	X21	Y21	Z21	X22	Y22	Z22	X23	Y23	Z23	X24	Y24	Z24	X25	Y25	Z25	X26	Y26	Z26	X27	Y27	Z27	X28	Y28	Z28	X29	Y29	Z29	X30	Y30	Z30	X31	Y31	Z31	X32	Y32	Z32	X33	Y33	Z33	X34	Y34	Z34	X35	Y35	Z35	X36	Y36	Z36	X37	Y37	Z37	X38	Y38	Z38	X39	Y39	Z39	X40	Y40	Z40	X41	Y41	Z41	X42	Y42	Z42	X43	Y43	Z43
																																																																																																																																		
127	1.26	769.71808	1649.62854	1322.46387	815.48407	1668.74951	1424.58545	666.95612	1597.68115	1369.95251	712.95874	1616.08484	1478.79395	655.66364	1415.76184	1417.4231	620.47601	1123.78101	1453.88196	803.00305	1351.05835	1408.87	848.33185	1196.32104	1419.19434	606.45251	1233.93005	1517.25024	726.68994	1368.00232	1253.32788	671.62964	1181.87708	1190.68164	635.547	1038.54724	1208.7207	640.85803	925.55157	1188.13196	687.68365	792.72729	1202.82385	630.41034	803.24146	1188.2229	654.79248	724.32947	1173.26697	748.70959	1401.83386	1559.4823	684.85114	1221.97791	1685.2085	691.1817	1094.15808	1706.26257	766.5437	991.67365	1726.42981	879.90973	917.87567	1683.91064	850.53082	901.03107	1730.1427	919.13611	851.60181	1721.58533	802.74731	924.62726	1354.48901	795.9151	919.6142	1570.47498	614.1203	925.84229	1399.57031	610.74933	925.96399	1543.57605	845.01331	602.20959	1297.24573	870.79993	470.96127	1321.13855	825.90686	286.50128	1322.8241	802.32709	74.40623	1387.68079	760.8573	44.59416	1443.59473	945.94049	39.65675	1365.33411	744.68793	580.54083	1644.36182	746.68207	422.12048	1636.03357	590.20685	343.11865	1643.71887	422.74545	222.38078	1605.0498	373.15961	239.91342	1548.90845	439.99585	77.79046	1612.48706	793.05804	1698.01331	1402.38757	1973.13794	1023.44403	-3101.95508	2012.48889	1022.04327	-3140.76782	NaN	NaN	NaN
128	1.27	782.36896	1651.04553	1319.60168	828.4516	1670.2804	1421.52014	679.60657	1599.37854	1367.31189	725.84393	1617.91357	1475.97595	668.37122	1417.36414	1414.82983	632.69934	1125.62683	1451.89185	815.6319	1352.71631	1406.64758	860.96155	1197.97485	1417.04126	619.08862	1235.46228	1514.63477	739.18207	1369.47827	1251.12988	685.80743	1183.25146	1188.22949	651.98114	1038.59851	1205.42395	660.79077	925.79346	1184.42114	712.13678	794.94202	1197.98145	654.23389	803.28735	1184.10461	681.04016	725.39178	1168.53162	761.39514	1403.58032	1557.36633	698.03973	1223.64063	1683.19946	703.49298	1095.44946	1703.42395	775.01721	990.68677	1724.66931	885.87915	912.37354	1683.04053	855.9057	897.1983	1729.49634	922.33746	844.58649	1720.83777	815.17218	925.91327	1352.23657	807.57623	921.48627	1568.34827	626.60669	927.52039	1397.48511	623.49548	927.14331	1541.45105	852.24384	601.90558	1295.52844	876.32513	470.42584	1319.8595	828.35663	286.44431	1322.13391	802.55829	74.6161	1387.69568	761.13849	45.02906	1443.89392	946.0752	39.47211	1365.12402	766.54041	582.55951	1641.2467	773.33319	424.74277	1633.09216	616.76904	344.83286	1640.70203	449.02353	224.77419	1602.57166	397.85675	240.616	1546.66382	469.66632	81.50337	1613.0155	806.18011	1699.63281	1399.30994	1973.10107	1023.65747	-3101.90283	2012.5105	1022.05573	-3140.67896	NaN	NaN	NaN
129	1.28	795.18817	1652.60791	1316.79626	841.4079	1671.81421	1418.71167	692.33856	1601.30298	1364.81897	738.75433	1619.85315	1473.37378	680.84747	1419.02087	1412.6488	645.33942	1127.14026	1449.63147	828.17023	1354.36633	1404.45215	873.49304	1199.65381	1414.9043	631.52509	1237.05359	1511.98511	751.65833	1371.07117	1248.96741	700.0235	1184.62903	1185.76123	668.39709	1039.20483	1202.31482	680.73206	926.33887	1180.72815	736.6308	796.98053	1193.91833	678.2973	803.78638	1180.07056	707.93646	726.9469	1163.7041	773.94354	1405.21155	1555.19299	711.04382	1225.24963	1681.10669	715.80334	1096.74341	1700.68713	783.3703	989.94379	1723.11987	891.35284	906.92328	1682.33313	860.97253	893.57507	1729.2345	924.92133	837.77911	1720.3446	827.47028	927.29291	1350.04065	820.00348	923.71112	1566.27771	639.10779	929.2453	1395.52002	636.42383	928.57599	1539.36829	859.16937	601.5174	1294.47449	881.57977	469.47488	1318.44238	831.09058	286.06293	1321.34619	802.77228	74.76861	1387.64111	761.24164	45.29393	1443.88684	946.21729	39.35824	1365.00537	788.17334	584.55658	1637.80078	799.40582	427.41876	1629.39392	643.59406	346.1319	1637.44714	476.10205	226.18297	1600.42651	423.28223	240.02498	1544.64661	500.78091	84.20885	1612.83936	819.23712	1701.1803	1396.56055	1973.18518	1023.55304	-3101.97974	2012.55762	1022.1153	-3140.73828	NaN	NaN	NaN
130	1.29	807.88324	1654.07214	1314.24268	854.34344	1673.30701	1416.05994	705.23657	1603.07202	1362.58447	751.63464	1621.73218	1470.96497	693.20825	1420.62183	1410.52893	657.77405	1128.84045	1447.40601	840.55249	1356.04614	1402.38635	884.97974	1201.12585	1412.60913	643.96533	1238.66895	1509.45203	764.04828	1372.75842	1246.95215	714.10718	1186.1698	1183.35339	684.22815	1039.59851	1199.00452	700.65192	927.12518	1176.95007	761.40002	799.99139	1189.32678	702.86694	804.54132	1175.75708	735.33466	729.1745	1158.74182	786.4281	1406.771	1553.05798	723.85229	1226.74194	1678.99792	728.08252	1098.04712	1698.0072	791.37927	989.1499	1721.50842	896.30408	901.63397	1681.85413	865.56451	890.0976	1729.04102	926.91791	831.32465	1720.1991	839.63892	928.67065	1347.77698	832.53784	925.92999	1563.99402	651.44482	931.02277	1393.73975	649.41193	930.22021	1537.41345	866.45081	601.00006	1292.94897	886.44464	468.37802	1317.21704	834.0108	285.49521	1320.58459	803.10284	74.97557	1387.59692	761.33026	45.66891	1443.80872	946.43445	39.17286	1364.78796	809.9306	587.08728	1634.65491	825.427	430.24057	1625.80164	670.45532	347.9007	1634.79492	503.64737	226.09489	1598.31921	449.39267	238.1393	1542.81775	533.17627	85.62701	1611.85425	832.2915	1702.65771	1394.11975	1973.05017	1023.36731	-3101.92651	2012.58496	1022.17206	-3140.63599	NaN	NaN	NaN
131	1.3	820.45911	1655.54529	1311.98914	867.14423	1674.6853	1413.48059	717.81915	1604.8739	1360.48926	764.42694	1623.46741	1468.73389	705.67615	1422.10999	1408.48584	670.16675	1130.42627	1445.06531	852.94806	1357.67273	1400.32153	897.31421	1202.70374	1410.53345	656.37292	1240.15283	1507.00317	776.20374	1374.36536	1244.8219	727.99689	1187.76453	1180.95349	699.78632	1040.21545	1195.98657	720.38513	928.21887	1173.16235	786.30865	803.63544	1184.78076	727.61047	805.8219	1171.49817	763.14819	732.13116	1153.93616	798.75214	1408.17554	1550.76697	736.49799	1228.13538	1676.82861	740.24603	1099.5011	1695.47131	799.2077	988.63611	1720.05713	900.85699	896.66779	1681.71289	869.43683	886.85339	1728.88123	928.27844	825.21405	1720.35547	851.70325	930.03369	1345.35388	844.9726	927.91058	1561.25757	663.70337	932.83081	1392.0752	662.4223	932.20673	1536.04187	873.81213	600.44519	1291.56689	890.84131	467.228	1316.2876	836.92242	285.07297	1319.84583	803.40979	75.19103	1387.49231	761.50549	46.0724	1443.8866	946.59052	39.10308	1364.72058	831.40308	589.66327	1631.50037	850.7168	433.03955	1621.75293	697.54169	348.40021	1631.26904	531.44092	224.57356	1595.73853	476.04526	234.39919	1540.85657	566.89899	86.04804	1610.11414	845.28528	1704.05383	1391.80823	1973.17261	1023.91156	-3101.97583	2012.45398	1022.18274	-3140.66699	NaN	NaN	NaN
132	1.31	832.94904	1656.93787	1309.68091	879.87512	1676.00134	1411.23083	730.24609	1606.60291	1358.49377	777.1886	1625.06714	1466.65955	717.86163	1423.49597	1406.28015	682.46021	1131.90674	1442.71057	865.24817	1359.24329	1398.24231	910.46051	1204.48315	1408.55762	668.74817	1241.61438	1504.80737	788.4162	1376.09521	1242.87451	741.78296	1189.39319	1178.55127	715.40106	1041.01721	1192.80774	740.11932	929.52148	1169.34717	811.33807	807.92175	1179.98083	752.54767	807.54083	1167.19592	791.52637	735.56427	1148.70056	811.14636	1409.68311	1548.87122	749.02161	1229.34436	1674.55347	752.14771	1100.86902	1692.76465	806.8913	988.42896	1718.75208	905.03571	891.95642	1681.63354	873.0672	883.94672	1729.00806	929.18011	819.5451	1720.86523	863.60565	931.28143	1342.75183	857.84937	929.97101	1558.55054	675.909	934.49078	1390.61609	675.58594	934.11499	1534.63281	881.27515	600.00873	1290.40588	895.40192	466.30661	1315.37109	839.67291	284.70969	1319.23376	803.58014	74.98177	1386.98193	761.43835	46.55966	1443.54651	946.69006	38.94851	1364.6377	852.961	592.61627	1628.66638	875.97162	436.51022	1618.26721	724.32068	349.55951	1628.39172	560.61401	222.12709	1593.82227	503.66452	229.89629	1539.52795	602.55414	86.12651	1608.7113	858.22235	1705.43018	1389.66418	1973.09021	1023.99432	-3102.12695	2012.58154	1022.18835	-3140.64478	NaN	NaN	NaN
133	1.32	845.42352	1658.31848	1307.60596	892.54456	1677.21948	1408.99573	742.39337	1608.3634	1356.58081	789.82587	1626.5249	1464.72791	730.11157	1424.88379	1404.30444	694.88855	1133.26331	1440.37598	877.45374	1360.69031	1396.10742	921.83478	1205.59558	1406.10864	681.17126	1242.91162	1502.65442	800.51691	1377.75134	1240.84863	755.24945	1191.02673	1176.14502	730.77222	1041.7749	1189.37439	759.73071	931.03607	1165.49243	836.44647	812.84528	1174.99133	777.61249	809.74335	1162.96777	819.76019	739.85095	1143.74878	823.48792	1411.04993	1546.86121	761.44531	1230.50281	1672.328	763.77625	1102.27063	1690.11572	814.52338	988.48621	1717.60144	908.67371	887.47144	1681.95081	876.49469	881.58588	1729.42029	929.74506	814.44391	1721.75964	875.34436	932.40417	1340.04785	870.75043	931.7547	1555.55139	688.01062	936.13062	1389.25842	688.89905	936.17365	1533.69714	888.52856	599.58429	1289.36023	899.62579	465.62231	1314.48633	842.10962	284.34644	1318.65967	803.58984	75.24274	1386.95886	761.63708	47.10398	1443.57483	946.78333	38.78645	1364.52759	874.11047	595.51013	1625.73645	900.61969	440.22345	1614.63232	750.84528	350.49155	1625.4126	590.21399	218.57344	1591.66809	532.08899	223.62099	1538.06238	638.52582	84.67448	1605.90466	870.96252	1706.79028	1387.65588	1973.11414	1023.38831	-3102.05688	2012.48291	1022.04633	-3140.81519	NaN	NaN	NaN
134	1.33	857.92535	1659.6897	1305.71423	905.11792	1678.3844	1406.98596	754.82074	1609.87744	1354.78931	802.45465	1627.87354	1462.9303	742.37714	1426.08997	1402.32397	707.30115	1134.49292	1438.10852	889.70764	1362.04761	1394.02722	934.05707	1206.91943	1403.84595	693.69501	1244.10657	1500.62341	812.58472	1379.33972	1238.9231	768.53015	1192.65112	1173.68408	746.14246	1042.51477	1185.90918	779.35022	932.79492	1161.6626	861.41663	818.24622	1170.36304	802.74207	812.37933	1158.65112	848.0697	744.74817	1138.64868	835.89948	1412.29028	1544.9519	773.73212	1231.50293	1670.06482	775.12231	1103.55896	1687.28296	821.7674	988.68744	1716.26184	912.09393	883.45142	1682.35498	879.42499	879.49054	1729.94556	929.80609	809.96478	1723.06592	887.11426	933.51349	1337.1875	883.72339	933.48627	1552.38611	698.99683	937.8446	1388.06421	702.20483	937.92792	1532.59729	895.6026	599.36212	1288.31897	903.57306	465.1933	1313.57666	844.49829	284.17825	1318.14575	804.04053	75.38295	1386.81934	761.81879	47.7163	1443.58472	946.84521	38.67551	1364.4314	895.0871	598.51941	1622.77771	924.71478	444.16934	1610.96326	776.66296	350.48828	1621.89905	620.46808	213.61122	1589.24878	561.41089	216.3997	1536.36011	675.77484	82.83933	1603.10144	883.6347	1708.03125	1385.64648	1973.03821	1023.91541	-3102.0686	2012.57556	1022.17023	-3140.84277	NaN	NaN	NaN
135	1.34	870.26691	1660.96191	1303.87122	917.41034	1679.37354	1404.65662	767.51746	1611.15479	1353.1958	815.06927	1629.1366	1461.19849	754.81659	1427.27246	1400.66052	719.73468	1135.63293	1435.98193	901.96545	1363.31799	1391.92712	946.26392	1208.10938	1401.56543	706.1131	1245.38794	1498.77124	824.67041	1380.82971	1237.06372	781.69116	1194.23718	1171.07617	761.34717	1043.43958	1182.60706	798.94623	934.6618	1157.7384	886.38611	824.28003	1165.5304	827.97064	815.52179	1154.28955	876.54211	750.45483	1133.66553	848.34277	1413.35413	1542.93555	785.82446	1232.35742	1667.70117	786.31488	1104.80078	1684.51501	828.95367	989.04907	1715.00061	915.28119	879.81396	1682.92761	882.28552	877.84833	1730.37476	929.60992	805.93378	1724.4585	898.75861	934.47162	1334.24463	896.71674	935.06372	1549.13367	711.29816	939.20782	1386.93079	715.53241	939.70111	1531.70544	901.72253	599.1734	1287.84155	907.53735	464.81229	1312.67236	846.49036	284.12036	1317.70789	804.31006	75.72698	1386.65564	762.01031	48.40167	1443.6864	946.94928	38.66067	1364.40857	915.68256	601.7547	1619.948	948.13275	448.10153	1607.24731	802.51239	349.8074	1618.53369	651.49036	207.98795	1586.75684	591.7182	207.65526	1534.58911	713.85071	80.33962	1599.94763	896.17236	1709.1781	1383.84387	1973.09851	1023.40332	-3101.97412	2012.60168	1022.13232	-3140.6521	NaN	NaN	NaN
